<svg id="visual" viewBox="0 0 900 600" width="900" height="600" xmlns="http://www.w3.org/2000/svg" xmlns:xlink="http://www.w3.org/1999/xlink" version="1.1"><path d="M0 97L60 97L60 91L120 91L120 67L180 67L180 55L240 55L240 67L300 67L300 73L360 73L360 61L420 61L420 97L480 97L480 79L540 79L540 67L600 67L600 49L660 49L660 55L720 55L720 61L780 61L780 49L840 49L840 61L900 61L900 97L900 0L900 0L840 0L840 0L780 0L780 0L720 0L720 0L660 0L660 0L600 0L600 0L540 0L540 0L480 0L480 0L420 0L420 0L360 0L360 0L300 0L300 0L240 0L240 0L180 0L180 0L120 0L120 0L60 0L60 0L0 0Z" fill="#d0ff77"></path><path d="M0 265L60 265L60 331L120 331L120 271L180 271L180 241L240 241L240 217L300 217L300 265L360 265L360 157L420 157L420 181L480 181L480 313L540 313L540 229L600 229L600 223L660 223L660 223L720 223L720 241L780 241L780 145L840 145L840 145L900 145L900 259L900 95L900 59L840 59L840 47L780 47L780 59L720 59L720 53L660 53L660 47L600 47L600 65L540 65L540 77L480 77L480 95L420 95L420 59L360 59L360 71L300 71L300 65L240 65L240 53L180 53L180 65L120 65L120 89L60 89L60 95L0 95Z" fill="#9cdb68"></path><path d="M0 379L60 379L60 439L120 439L120 397L180 397L180 313L240 313L240 277L300 277L300 313L360 313L360 229L420 229L420 247L480 247L480 367L540 367L540 331L600 331L600 295L660 295L660 361L720 361L720 319L780 319L780 211L840 211L840 199L900 199L900 373L900 257L900 143L840 143L840 143L780 143L780 239L720 239L720 221L660 221L660 221L600 221L600 227L540 227L540 311L480 311L480 179L420 179L420 155L360 155L360 263L300 263L300 215L240 215L240 239L180 239L180 269L120 269L120 329L60 329L60 263L0 263Z" fill="#6bb75a"></path><path d="M0 445L60 445L60 481L120 481L120 469L180 469L180 361L240 361L240 421L300 421L300 433L360 433L360 391L420 391L420 415L480 415L480 457L540 457L540 487L600 487L600 433L660 433L660 427L720 427L720 463L780 463L780 385L840 385L840 271L900 271L900 481L900 371L900 197L840 197L840 209L780 209L780 317L720 317L720 359L660 359L660 293L600 293L600 329L540 329L540 365L480 365L480 245L420 245L420 227L360 227L360 311L300 311L300 275L240 275L240 311L180 311L180 395L120 395L120 437L60 437L60 377L0 377Z" fill="#3d934b"></path><path d="M0 601L60 601L60 601L120 601L120 601L180 601L180 601L240 601L240 601L300 601L300 601L360 601L360 601L420 601L420 601L480 601L480 601L540 601L540 601L600 601L600 601L660 601L660 601L720 601L720 601L780 601L780 601L840 601L840 601L900 601L900 601L900 479L900 269L840 269L840 383L780 383L780 461L720 461L720 425L660 425L660 431L600 431L600 485L540 485L540 455L480 455L480 413L420 413L420 389L360 389L360 431L300 431L300 419L240 419L240 359L180 359L180 467L120 467L120 479L60 479L60 443L0 443Z" fill="#00703c"></path></svg>